<svg xmlns="http://www.w3.org/2000/svg" width="39.626" height="9.551" viewBox="0 0 39.626 9.551">
  <g id="thehustle_white" transform="translate(2.791 -8.752)">
    <g id="Group_1" data-name="Group 1" transform="translate(3.738 8.752)">
      <path id="Path_1" data-name="Path 1" d="M4.6,9.051l.015-.067.022-.06.022-.06.075-.015.045-.03.052-.03h.06l.06-.022.067.03.06-.022h.067l.06-.022.06.022.067.007.06-.015.067.022h.119l.067-.007.06.015.067-.037h.06L5.9,8.8l.06-.015.067.007.06-.045.06.015.067.03.06-.022.067-.022.067.007.06.03.052.037.022.06.045.045.03.052-.007.067v.127l-.022.06.022.067.015.06v.06L6.6,9.491l.015.06-.007.067.007.06.007.067.007.067-.022.06.022.067L6.6,10l-.007.067v.127l.015.06.022.067.007.06-.037.067-.007.06-.007.067.022.06.007.067.022.06v.067l-.037.06.007.067-.007.067v.127l.03.06-.045.067.022.06.007.067.007.06-.007.067-.007.06-.015.067.03.06-.03.067.022.067-.015.06.015.067-.007.06v.127l.007.067.015.067-.03.06.045.052.015.06.045.052.052.037H6.82l.06-.022.06.015h.067l.067.037.06-.045.067.022h.06l.067.015h.067l.06-.022.067.03.067-.03.06.03h.067l.06-.03.067.022.067-.03h.06l.067.03.06-.045.067.007.067.045.06-.007.067-.022h.067l.06.022.067-.015.067.022.06-.022.06-.03.067.022.03-.067.037-.037.075-.03v-.067l-.022-.06v-.067l.045-.06-.03-.067v-.06l.037-.067-.045-.06.015-.067.022-.06-.045-.067.045-.06L8.931,11.6l.015-.06.015-.067-.03-.06v-.067l.037-.06-.022-.067.03-.06-.03-.067.03-.06-.037-.067.03-.06-.045-.067.03-.06-.03-.067.045-.067-.037-.06.015-.067-.022-.06.022-.067.007-.06-.022-.067.015-.06.007-.067-.03-.06.045-.067-.03-.06-.007-.067.007-.067.007-.06-.015-.067.022-.06-.015-.067L8.931,9.5l.022-.067-.015-.06L8.946,9.3V9.237l.015-.06L8.939,9.11V8.984l.045-.045.037-.045.022-.067.06-.015.052-.022h.127l.06-.022.067.03.06.007.06-.015L9.6,8.8l.06-.022.067-.022.06.037.067-.015.06-.007.067-.015.06.045.06-.015.067-.022.06.045.067-.03.06.015.067-.015.06.007.067-.03.06.037.067-.03.052.045.06.007.067.015.045.037-.007.075.052.045.007.067-.007.06v.127l.015.06-.015.067-.007.06.007.067.022.06-.022.06-.022.067.037.06V9.8l.007.06-.037.067-.007.06.03.06v.067l.007.06-.007.067-.03.06.03.067.007.06.007.067v.06l-.015.067.007.06.007.06-.007.067-.007.06-.007.067-.022.06.007.067v.06l-.007.067v.06l.03.06-.015.067v.06l.022.067-.037.06.022.067v.06l-.022.067.015.06-.007.06-.007.067.037.06v.067l.007.06-.007.067-.022.06v.127l.007.067.022.06-.045.067.03.06.007.067v.06l-.03.06v.127l.007.067.015.06-.015.067-.015.06.03.067-.015.06-.015.067.045.06-.045.067.045.06-.022.067v.06l-.022.06.037.067-.007.06-.007.067.022.06v.067l-.015.06-.03.067.022.06.007.067v.127l-.007.06.007.06-.015.067.007.06.015.067-.015.06.015.067-.037.06.03.067v.06l-.015.06-.015.067.045.06-.037.067v.06l.03.067v.06l.007.067v.06l-.007.067-.015.06-.015.067.007.06.03.067-.007.06-.03.067.015.06.015.067-.015.06v.067l.007.06-.03.067v.06l.045.067-.03.06.03.067-.015.06v.067l.015.06V17l-.037.06.037.067-.03.06-.007.067.007.06.03.067-.03.06-.007.067.037.06-.037.067.037.06v.127l-.03.067.007.06-.022.06-.06.03-.022.06-.037.052-.06.022-.067.007-.067-.045-.06.03-.06.007-.067-.037-.06.015H10.3l-.067-.022-.06.045-.067-.022-.06.022-.06-.022-.067.03-.06-.007-.06-.037-.067.045-.06-.03H9.543l-.06.022H9.357l-.067-.037-.06.022H9.17l-.052-.037-.052-.03L9,18.079l-.015-.067-.007-.06v-.06l-.022-.06-.015-.067.022-.06.022-.067-.03-.06v-.06l-.015-.067.045-.06-.03-.06-.007-.067.015-.06-.022-.067.03-.06.015-.067-.037-.06-.007-.06.015-.067.03-.06L8.946,16.7l.015-.06-.015-.06-.007-.067.037-.06.007-.067-.007-.06-.007-.067V16.2l-.022-.06.022-.067-.03-.06.037-.067-.03-.06.037-.067-.045-.06.022-.06v-.067l-.007-.06L8.939,15.5l.022-.06-.015-.067.007-.06-.015-.06.037-.067-.007-.06-.03-.067L8.976,15l-.022-.067-.015-.06v-.127l.03-.067-.015-.06.022-.067-.03-.052-.037-.052L8.887,14.4l-.045-.03L8.819,14.3l-.075.007-.052-.045-.067.007-.06.03L8.5,14.266l-.06.007-.067.022-.06.015-.06.007L8.185,14.3l-.06-.03-.067.045L8,14.289l-.067-.007-.06-.015-.067.022-.06.022H7.618l-.067-.03-.06.007-.067.015-.06.007L7.3,14.3l-.06-.022H7.17l-.06.037-.067-.045-.067.007-.06-.007-.052.052L6.8,14.311l-.037.052-.037.045-.03.045-.045.045-.022.06.022.067-.022.06.007.06-.015.067.03.06.007.067.007.06-.007.06-.015.067.015.06-.015.067v.06l.007.06-.022.067.037.06-.007.067.007.06-.03.06.03.067-.03.06.037.067-.037.06.022.06-.007.067.007.06-.007.067.022.06-.045.067.037.06.007.06-.03.067.022.06-.022.067-.007.06.007.067.03.06-.045.067.037.06L6.626,17l.045.067-.045.06.037.067-.037.06.015.067.007.06.015.067-.007.06v.06l-.022.067.015.06.022.067-.007.06-.045.067.007.052L6.6,18l-.037.037-.03.045-.03.067-.06.022-.067-.022-.067.022-.06.007H6.186l-.067-.045H5.992l-.067.03H5.8l-.067-.007-.06.015L5.6,18.154h-.06l-.067-.007H5.41l-.06.015-.067-.015-.067.03-.06.007-.067-.022H5.022l-.06-.007-.067.022-.06-.03-.06-.007-.06-.022-.045-.052-.03-.052v-.06l-.007-.06-.007-.067.015-.06-.007-.06.007-.067-.007-.06-.03-.067.007-.06-.007-.06.015-.067-.022-.06.022-.067-.022-.06.03-.067-.007-.06-.015-.06.03-.067-.03-.06.037-.067v-.127l-.015-.06V16.5l.022-.06v-.067l-.015-.06-.037-.06.037-.067-.015-.06.022-.067L4.6,16l.007-.067.015-.06.015-.067-.022-.06.022-.067-.015-.06-.007-.06.015-.067-.037-.06.045-.067v-.06l-.007-.067v-.06l-.007-.067-.022-.06.03-.06-.022-.067-.007-.06V14.8l.037-.06-.007-.067.007-.06.007-.067-.037-.06.037-.067-.03-.06.022-.067-.022-.06v-.06l.007-.067.007-.06-.022-.067.015-.06.007-.067L4.6,13.8l.022-.067.03-.06L4.634,13.6l-.03-.06.022-.067.015-.06-.007-.067-.007-.06.022-.06-.03-.067.03-.06-.015-.067-.022-.06v-.067l.022-.06-.022-.067v-.06l.03-.067-.03-.06.015-.067.007-.06L4.6,12.4l.03-.06-.022-.06L4.6,12.214l.015-.06L4.6,12.088v-.06l.045-.067L4.6,11.9l.022-.06.015-.067-.03-.06v-.067l.022-.06L4.6,11.52l.007-.06.03-.067-.015-.06-.007-.067.015-.06V11.14l.015-.06-.015-.067-.037-.06.022-.067v-.06l.022-.067-.007-.06-.03-.067.037-.06-.015-.067.015-.06L4.6,10.379l.045-.06-.022-.067.007-.06-.015-.067-.007-.06L4.641,10,4.6,9.939l.007-.067.015-.06L4.6,9.752l.037-.067-.03-.067.022-.06-.015-.067v-.06l-.007-.067.015-.06V9.237l-.015-.06.015-.067Z" transform="translate(-4.596 -8.752)"/>
    </g>
    <g id="Group_2" data-name="Group 2" transform="translate(16.964 8.79)">
      <path id="Path_2" data-name="Path 2" d="M21.855,10.476l-.06-.015-.067.022-.06.015-.06.037-.052.03-.045.052-.007.067.007.067-.03.052-.03.06.015.067-.007.06v.067l-.037.06.03.067.015.06-.015.06.007.067-.022.067.03.06-.007.06.015.067.037.052v.067l.06.045-.007.075.067.037.03.052.03.052.045.052.015.06.045.045.06.037.045.045.03.052.067.022.03.067h.082l.045.045.052.03.052.037.03.067.082-.007.037.06.052.037.052.037.052.037.06.015.052.037.06.022.052.045.045.045.052.037.052.037.03.06.045.045.037.052.052.037.03.06.067.022.022.067.037.052.067.022.03.06.045.045.037.052.045.045.03.06.03.052.045.052-.007.075.037.052.037.052.022.06.052.045-.007.067.052.052.022.06.045.045.015.067.015.06.03.06v.067l.03.052.015.067.03.052.007.067.052.052.022.06-.03.075.037.052v.067l.06.045.007.067-.015.075.03.052.037.06.015.06.007.067v.06l-.015.067.022.06.022.067-.015.06.007.067v.06l-.022.067.022.06.015.067v.06l-.03.067.007.06-.015.067v.06L24.2,16.5v.06l-.037.06.007.067-.052.052-.03.06-.015.06-.022.06v.06l-.007.067-.022.06-.067.045-.03.052-.037.052-.015.06-.03.06-.015.067-.037.045-.075.03-.037.052-.045.037-.045.045-.045.052-.022.06-.082.007-.037.052-.045.045-.045.037-.06.037-.06.022-.06.015-.045.052h-.067l-.052.045-.06.015-.052.037-.067.015-.06.022-.06.015-.06.022-.052.03-.075-.022-.052.037-.067-.007h-.067l-.06.007-.06.03-.06.03-.067-.007h-.067l-.06-.037-.067.045-.06-.022h-.067l-.06-.022H21.6l-.067.015-.06-.03-.067.022-.06-.045-.06-.007-.067.015-.06-.037-.067.022-.067-.015-.052-.052-.067.022-.067-.022-.045-.06-.06-.022h-.067l-.06-.022-.045-.052-.067-.015-.045-.052-.06-.015-.067-.015-.03-.075H20.22l-.052-.037-.022-.075-.06-.03-.067-.022-.045-.045-.007-.082L19.9,17.5l-.045-.052-.007-.067-.075-.03-.022-.06-.022-.067-.067-.03.007-.075-.06-.045-.015-.06-.007-.067-.052-.052-.022-.052.015-.075-.037-.06.015-.06-.037-.06.03-.067-.037-.06.03-.06-.037-.067.022-.06-.022-.067.037-.06-.037-.06.015-.067-.022-.06.022-.067.015-.06-.03-.067.015-.06.007-.06-.03-.067.045-.06-.03-.067-.007-.06.007-.067.007-.06.067-.022.06.03.067-.022h.06l.06.022.067-.015.06.007h.067l.06.015.067-.03.06.007.06-.007.067.03.06.007.067-.03.06.015h.187l.067-.015.06.03h.067l.06-.007h.06l.067-.015.06-.022.067.03.06-.015.067-.007.06-.007.067.037.06-.007.022.052-.037.067.03.067-.015.06.022.067-.007.06.037.067-.03.06.03.067-.03.067.022.06.022.06.015.067-.045.067.045.06.007.067.007.06.015.06.03.067.052.037.045.052.06.022h.067l.075-.03.06.015.067-.007.022-.067.03-.052.022-.06.052-.045.03-.052-.015-.075.015-.06.007-.06.007-.06.037-.06-.03-.067v-.06l-.007-.06-.007-.067.015-.06-.015-.06-.015-.06v-.127l-.015-.067.007-.067-.022-.052-.022-.06-.015-.067-.022-.06-.06-.037-.015-.06L22,14.9l-.052-.045-.015-.067-.06-.037-.037-.045-.03-.067-.06-.03-.03-.052-.045-.052L21.6,14.49l-.045-.045-.052-.037-.045-.045-.022-.067-.052-.045-.045-.045-.052-.037-.06-.03-.015-.075-.067-.022-.052-.037-.045-.045-.03-.06-.045-.045-.045-.045-.052-.037-.06-.03-.03-.06-.037-.052-.067-.022-.037-.06-.037-.052-.075-.015-.007-.082-.082-.007-.03-.06-.045-.052-.03-.06-.067-.015-.037-.06L20.2,13.1l-.06-.037-.045-.045-.03-.06-.022-.067-.06-.03-.045-.045-.037-.052-.045-.052-.03-.052-.045-.052-.022-.06-.037-.052-.045-.045-.022-.06-.045-.052.007-.075-.037-.052-.022-.06-.007-.067.007-.06-.06-.06.03-.067-.007-.06-.045-.06-.007-.067-.015-.067v-.06l.007-.067.007-.06.022-.067-.007-.067-.037-.06.007-.067.037-.06-.007-.067-.022-.067.03-.06v-.127l.03-.067.007-.06-.037-.067.037-.06L19.5,10.5l.03-.067.007-.06-.007-.067.015-.06.045-.06-.015-.067.045-.052.03-.052.015-.067V9.879l.06-.037.037-.052V9.715l.067-.03.007-.075.037-.052.045-.045.06-.03.03-.06.052-.037.067-.022.03-.06.037-.06.052-.03L20.3,9.17l.075.007.037-.06.052-.037.075.007.052-.045.052-.022.067-.007.045-.06h.067l.052-.037.067.007L21,8.872l.067-.007.067.022.052-.052.067.022.067-.007.06-.015.06-.03h.127l.067.03.06-.03h.067l.06.015.067.007.06-.037.067.03.06.015.06.015.067-.022h.06l.06.03.06.03.067-.022.06.015h.067l.052.06.067-.015.06.007.06.037.067-.007.045.052.052.037.075-.007.06.015.052.045.037.052.075.007.045.037.067.022.052.03.022.075.052.037.052.03.052.037.045.045.06.022.03.067.06.03.007.067.067.03.007.075.075.022.015.067.022.06.045.045.037.052v.067l.037.06.007.06.022.06-.037.067.007.067.03.06-.037.067.022.067.015.06v.134l-.03.06.015.067-.022.067.022.06.022.067-.007.067v.06l-.037.067.03.067-.037.06.007.067.022.075-.067-.037L24,11.535l-.06.022-.067.015h-.06l-.06-.015-.067-.03-.06.045-.067-.022-.06-.015-.06-.015-.067.022-.06.022H23.19l-.067-.037-.06.015-.06.015h-.127l-.067-.03h-.06l-.067.03-.06-.037-.06.007L22.5,11.52l-.06.037-.067-.037-.06.03-.067.007-.06-.007-.06-.03.022-.052-.022-.067.015-.06v-.06l.007-.067-.03-.06-.015-.067-.007-.06v-.067l.007-.06-.03-.06v-.067l-.015-.06-.03-.06-.007-.067-.067-.03-.037-.045Z" transform="translate(-19.444 -8.79)"/>
    </g>
    <g id="Group_3" data-name="Group 3" transform="translate(21.982 8.782)">
      <path id="Path_3" data-name="Path 3" d="M30.838,8.819l.06-.007.06.022.052.03.022.067.075.022.022.06-.015.067.015.067-.045.06.037.067-.022.067.007.06-.007.067v.194l-.007.06.03.067v.067l-.015.06-.007.067-.007.067.022.06-.022.067.007.067v.06l.03.067-.037.06.007.067-.037.052-.045.037-.06.03-.06.007-.06.03h-.127l-.06.007h-.06l-.067-.03h-.06l-.06.022-.067-.015-.06-.022-.067.03-.06-.03-.06.015-.067.037-.06-.015H29.9l-.06.007-.06-.007-.067-.015-.06-.015-.067.045-.06-.03-.067-.007-.06.015-.045.052-.037.045-.022.052-.037.052-.015.06.007.067.022.06-.015.067-.022.06.03.067v.127l-.03.06.037.06.007.067-.015.06v.067l-.03.06.022.067-.015.06v.067l.022.06-.022.067.037.06-.037.067.037.06v.194l-.022.06v.067l.015.06-.007.067-.022.06.022.067-.03.06.045.067-.015.06.007.067-.007.06-.03.067.045.06-.03.067-.007.06v.127l.03.067-.007.06.015.067v.06l-.015.067.007.06.007.067-.03.06v.067l-.007.06.007.067-.015.06.03.067-.03.06v.067l.037.06-.015.067.015.06v.06l.007.067-.007.06-.007.067.015.06-.037.067v.06l.007.067-.007.06.03.067-.037.06.022.067v.06l.022.067-.015.06-.007.067.007.06-.022.067.007.06v.127l-.007.067.03.06.007.067-.052.06.022.067-.015.06.045.067-.007.06-.03.067.015.06.022.067V16.8l-.007.067-.03.06.022.067.007.06-.015.067v.127l-.022.06.022.067.015.06V17.5l-.022.06.015.067-.007.06.007.067.007.067.007.06-.022.067.022.06-.045.06-.03.052-.022.045-.045.037-.037.045-.052.045-.06.007-.067-.037-.06-.007h-.067l-.06.015-.067.015-.06.015H28.54l-.06-.037-.067.007-.06-.007h-.067l-.06.007-.067.03-.06-.045-.067.015-.06.015h-.127l-.067-.015-.06-.015-.067.03-.06-.03-.067.022-.067-.007-.06.007-.06-.007-.052-.022-.052-.03-.045-.037-.052-.045.015-.067-.03-.06.022-.06v-.067l.007-.06-.022-.067-.03-.06.015-.067v-.06l.037-.06-.045-.067.03-.06-.007-.067.015-.06v-.067l-.015-.06.022-.067-.03-.06.03-.067v-.06l-.03-.067.03-.06-.037-.067v-.06l.03-.067-.037-.06V16.43l.045-.06-.007-.067-.022-.06v-.067l.022-.06-.015-.067.022-.06-.022-.067-.022-.06.045-.067-.045-.06v-.06l.045-.067-.022-.06-.022-.067v-.06l.045-.067-.037-.06v-.067l.037-.06-.037-.067.015-.06.015-.067-.045-.06.045-.067-.037-.06.022-.067.015-.06-.03-.067v-.06l.037-.067-.022-.06.022-.067-.022-.06.022-.067-.037-.06.037-.067-.045-.06.022-.067-.022-.06.045-.067-.037-.06.007-.067-.015-.06.015-.067.015-.06-.022-.067.015-.06.007-.067-.03-.06.037-.067-.022-.06-.015-.067.015-.06.007-.067-.022-.06.022-.067-.015-.06v-.067l.022-.06-.022-.067.007-.06.007-.067.015-.06-.03-.067.007-.06-.007-.067.03-.06.007-.067L27.115,12l.022-.067-.007-.067.007-.06v-.067l-.015-.06.03-.067v-.06l-.015-.067.007-.06-.015-.067-.022-.06.03-.067-.015-.06-.007-.067-.015-.067.045-.06-.007-.067-.03-.052.015-.075-.052-.037-.037-.052-.06-.015-.052-.03-.06.022-.06-.037-.067.03-.06-.037-.06.015-.067.015-.06.007-.06-.045-.067.037-.06-.007-.06-.007h-.127l-.06.022L26,10.647l-.067-.007h-.06l-.06.03-.067-.03-.06-.022-.06.037h-.067l-.06.007-.06-.037-.052-.03h-.067l-.037-.045-.037-.052-.022-.06.022-.067-.022-.06-.007-.067-.007-.067-.007-.06.022-.067L25.2,9.983v-.06l.007-.067.007-.067.007-.06.022-.067L25.242,9.6v-.06l.007-.067V9.4l-.03-.06.015-.067V9.207l-.022-.06.037-.067-.022-.06.03-.06.045-.037.03-.052.052-.022.06-.007L25.5,8.8h.06l.067-.007h.06l.067.03h.119l.067-.007L26,8.79l.067.045.06-.03.06-.007h.067l.06.03h.127l.06-.007.067-.022.06.022.067.015.06-.03.067.015.06.015.06-.045L27,8.834l.06-.045.067.015.06.007.06.022.067-.037.06.007.067.007.06-.022h.067l.06.015.06.03.067-.022.06-.007h.06l.067-.007.06.015L28.07,8.8l.06.015.06-.007.067-.015.06.015.067-.022.06.045.067-.03h.06l.06.007.067.022.06-.052.067.045h.06l.06-.037.067.007.06-.007h.067l.06.007.067.015.06.015.067-.007.06-.03.06.007.067.03.06-.015L29.7,8.8l.06.015h.067l.06-.007.067.03h.06l.06-.045.067.03.06-.037.067.022h.06L30.4,8.79h.06l.067.037.06-.037.067.022.06.015.067-.007Z" transform="translate(-25.197 -8.782)"/>
    </g>
    <g id="Group_4" data-name="Group 4" transform="translate(27.882 8.79)">
      <path id="Path_4" data-name="Path 4" d="M32.278,9.081l.007-.06.03-.052.022-.06.06-.015.037-.06.06-.015.06-.03h.127l.06.022.067-.007.06.022.067.007L33,8.812l.06.007.067-.03.06.03.067-.015.06.03h.067l.06-.007.067-.022h.127l.067.015.06-.007.067.015.06-.007.067-.007.067-.022.06.015.067-.007.045.052.067.007.03.06.037.045v.067l.022.052-.007.06-.007.067.022.06-.03.067.007.06-.007.067.037.06.015.067-.037.06.022.06-.022.067.015.06-.007.067.007.06-.03.067.045.06.007.067-.022.06.015.067-.045.06.037.06-.022.067.007.06-.007.067v.187l-.007.067.03.06v.067l-.015.06-.007.067-.007.06.022.06-.022.067.007.06v.067l.03.06-.03.067.03.06-.007.067v.06l-.015.067-.007.06.022.067v.127l.007.06v.067l-.03.06v.06l.022.067-.015.06-.022.067.03.06-.03.067.015.06.037.067-.015.06v.067l.007.06L34.367,13l-.015.06-.015.06.045.067-.03.06-.015.067v.06l.015.067v.06l.007.067-.007.06-.015.067.007.06.022.067-.015.06-.022.06.03.067v.06l.007.067-.037.06.037.067.007.06-.015.067.007.06-.037.067.022.06-.015.067v.06l.022.067-.022.06.037.067-.037.06.045.067v.06l-.007.067.007.06-.03.067v.06l.022.067-.015.06-.015.067.022.06-.037.067.052.06-.015.067v.127l-.037.067.045.06-.03.067.007.06.015.06.037.052.06.03.045.03.06.007.052.007.067.007h.06l.06-.015.06.03.067.007.06.007.06-.007.067.015.06-.037.06.03.067.007.06-.037.06.015.06-.015h.067l.06-.007.06.007h.067l.06-.007.06.037h.067l.06-.007.06.007h.067l.03.06.06.022.03.052.045.052-.015.067-.007.06.007.06-.015.067v.127l.007.06-.015.06.037.067v.06l-.045.067.015.06-.015.06.052.067-.015.06-.03.067.015.06.03.06v.067l-.007.06-.007.067-.03.052v.067l-.03.06-.052.03-.052.037-.06.015-.06-.015-.06.015-.067.022H35.8l-.067-.022-.06.007h-.127l-.067.015-.06.007-.067-.022-.06.022-.067-.037-.06-.015-.067.007h-.06l-.067.015-.06.022-.067.007-.06-.045-.067-.007h-.06l-.067.022-.06.007-.067.022H34.4l-.067-.037-.06.007-.067-.015h-.06l-.067.007-.06.03-.067-.045-.067.022-.06.007-.067.007-.06-.007-.067-.007-.06-.015-.067.03-.06-.037-.067.022-.06-.007-.067.015-.067-.007h-.127l-.06.007-.067.015-.06-.037-.067.03-.06-.022-.067-.007h-.067l-.06.022-.067.015-.06-.03-.052-.03-.015-.075-.075-.022.007-.067-.007-.06.015-.067v-.06l-.022-.067.03-.06-.03-.067.03-.06v-.06l-.03-.067.022-.06-.03-.067V17.2l.03-.067-.045-.06L32.263,17l.045-.06-.007-.067-.022-.06v-.067l.022-.06-.015-.06.022-.067-.022-.06-.022-.067.045-.06-.045-.067v-.06l.045-.067-.022-.06-.022-.067V16l.045-.067-.037-.06V15.8l.037-.06-.037-.067.015-.06.015-.067-.045-.06.045-.067-.037-.06.022-.067.015-.06-.03-.06-.007-.067.045-.06-.022-.067.022-.06-.03-.067.03-.06-.037-.067.037-.06-.045-.067.022-.06-.022-.067.037-.06-.03-.067.007-.06-.015-.067.015-.06.015-.067-.022-.06.015-.067.007-.06-.037-.067.045-.06-.022-.067-.015-.06.007-.067.015-.06-.022-.067.022-.06-.015-.067v-.06l.022-.067-.022-.06.007-.067.007-.06.015-.067-.03-.06.007-.067-.007-.06.03-.067v-.06l-.03-.067.022-.06-.007-.067.007-.06v-.067l-.015-.06.022-.067.007-.06-.015-.06.007-.067-.022-.06-.022-.067.037-.06-.015-.067-.007-.06-.015-.067.045-.06-.007-.067-.03-.06.045-.067-.03-.06.015-.067-.015-.06.007-.067-.03-.06.037-.067-.03-.06.037-.067-.015-.06-.015-.067-.007-.06.045-.067-.037-.067.007-.06.007-.067v-.127l-.022-.06.015-.067.007-.06-.007-.067-.022-.06.03-.067.022-.06-.037-.067-.007-.06V9.655l.03-.06.007-.067-.03-.067V9.275l.03-.067-.03-.06Z" transform="translate(-32.256 -8.79)"/>
    </g>
    <g id="Group_5" data-name="Group 5" transform="translate(32.807 8.849)">
      <path id="Path_5" data-name="Path 5" d="M37.188,9.14l.045-.052.007-.06.022-.052.037-.06.052-.03h.067l.06-.037.06.007h.067l.06.037.067-.03.06-.007.067.007.06.007.067-.022.06.022.06-.022.067.022.06.022.067-.03.067.03h.06l.067-.045.06.015.067.007.06-.007.067.022.06-.022.067.015.06-.03L39,8.894l.06-.022.067.022.06-.015.067.015h.06l.067-.007.06-.022.067.037.067-.052.06.03H39.7l.06-.03.067.03.06-.022.067.022.06.007.067-.007h.06l.067-.022.06.015.067-.022.067.022.06-.007.067-.015.06.022.067.03.06-.03.067-.007.067.007h.06l.06.015.06.015.03.052.067.015.022.06.052.052v.127l-.022.06.007.067-.022.06-.007.067.022.06-.007.067.03.06-.03.067.015.06-.03.067V9.9l.007.067.022.06v.134l-.015.06.007.067-.015.06.007.067.007.06.022.067-.037.052-.03.067-.067.015-.03.052-.067.007-.06.015-.06-.022-.06.015-.067-.007-.06-.007-.06.022-.067-.03-.06.015-.06-.015-.067.037-.06.015-.06-.037-.06.022-.067-.022-.06.015h-.127l-.06-.03-.06.052h-.067l-.06-.022-.06.015-.067-.045-.052.045h-.067l-.052.037-.045.037-.037.052-.015.06-.007.06-.007.067.03.067v.06l-.015.067-.007.067-.007.06.022.067-.022.067.007.067v.06l.03.067-.03.067.03.06-.007.067v.067l-.015.067-.007.06.03.06.022.052.022.052.045.037.052.03.045.045h.06l.06-.015.067.015.06.022.06-.037.06.037.06-.015.067-.037.06.015h.06l.06-.007.067.007.06.015.052.037H40.4l.03.06.022.06.007.052.03.052v.067l.007.06-.015.067-.007.06.007.067.022.06-.015.067-.022.06.022.067v.06l.007.067-.03.06.03.067.015.06-.015.067v.06l-.03.067.022.06-.022.067v.06l.022.067-.015.067.03.06-.06.045.007.075-.052.045-.052.037-.067.022-.06-.022-.067.007-.06.015-.06-.007-.06-.022-.06.022-.067-.03-.06.045-.06-.015-.06.007-.067-.007-.06-.037-.052.052-.067-.007-.052.03-.045.045-.037.052.007.067-.015.06.015.06v.06l-.007.067v.06l.015.067-.03.06-.007.06-.007.067.007.06-.015.067.037.06-.037.06v.067l.037.06-.015.067.015.06v.06l.007.067-.007.06v.067l.007.06-.037.067v.06l.007.067v.06l.03.06-.015.067.06.037.037.045.06.007.045.037.06.015.067-.007.06.015h.187l.06.007.06-.03.067-.007.06.045.06-.015.067.015.06-.045.06.007.06.03.067-.015.06-.03.06.007h.067l.06.007.06.03.067-.022.06-.007.06.022.06.015.052.037.022.052.045.045.045.052.007.06-.03.06.015.067-.007.06.007.067.007.06.015.06-.03.067.022.06-.03.06-.015.067v.127l.022.06.022.06v.067l-.037.06-.007.067v.06l.015.067.015.06.007.067-.022.06-.06.03-.037.045-.052.022-.052.022-.06.007-.06.03-.067-.045-.06.022-.067.015H40.6l-.067-.007-.06-.007L40.4,18.2l-.06.03-.067-.03-.06.022-.067-.015-.06.015h-.067l-.06-.007-.067.007h-.06l-.067.022-.06-.045-.067.03-.06-.022-.067-.007h-.06l-.067.022-.06.022-.067-.007H39.2l-.067-.037-.06.045-.067-.03-.06.007-.067-.015h-.067l-.06.015-.067-.022-.06.03-.067-.03H38.5l-.067.022-.06-.022-.067.037h-.06l-.067-.03-.067.037h-.06l-.067-.045-.06.007-.067.022H37.8l-.067-.022-.06.015-.067-.022-.067.022-.06.022-.06-.052-.067.022-.052-.037-.015-.075-.045-.03-.045-.052-.007-.067.045-.06-.037-.067v-.06l.037-.067-.037-.06.015-.067.015-.06-.045-.067.045-.06-.037-.06.022-.067.015-.06-.03-.067-.007-.06L37.232,17l-.022-.06.022-.067-.03-.06.03-.067-.037-.06.037-.067-.045-.06.022-.067-.022-.06.037-.067-.03-.06.007-.067-.015-.06.015-.067.015-.06L37.2,16l.015-.067.007-.06L37.18,15.8l.045-.06-.022-.067-.015-.06.007-.067.015-.06-.022-.067.022-.06L37.2,15.3v-.06l.022-.067-.022-.06.007-.067.007-.06.015-.067-.03-.06.007-.067-.007-.06.03-.067V14.6l-.03-.067.022-.06-.007-.067.007-.06v-.067l-.015-.06.022-.06.007-.067-.015-.06.007-.067-.022-.06-.022-.067.037-.06-.015-.067-.007-.06-.015-.067.045-.06-.007-.067-.03-.06.045-.067-.03-.06.015-.067-.015-.06.007-.067-.03-.06.037-.067-.03-.06.037-.067-.015-.06L37.2,12.7l-.007-.06.045-.067-.037-.06.007-.067.007-.06v-.127l-.022-.067.015-.06.007-.067-.007-.06-.022-.067.03-.06.022-.06-.037-.067-.007-.067v-.06l.03-.067.007-.06-.03-.067v-.187l.03-.067-.03-.06V11.05l-.007-.06-.007-.067.022-.06-.015-.067v-.06l.007-.067.007-.06.007-.067.022-.06-.015-.067.007-.06.007-.067v-.06l-.03-.067.007-.06v-.067l-.015-.06.037-.067-.03-.06.007-.067.022-.067-.022-.06.015-.067.007-.06L37.2,9.461V9.4l-.007-.067v-.06l.03-.067Z" transform="translate(-37.18 -8.849)"/>
    </g>
    <g id="Group_6" data-name="Group 6" transform="translate(10.558 8.782)">
      <path id="Path_6" data-name="Path 6" d="M18.154,9.081l-.022-.06-.03-.045V8.9l-.067-.015L18,8.827l-.06-.007-.06-.015-.067.037-.06-.037-.067.022-.06.007h-.067l-.067-.007-.06-.037h-.194l-.06.03-.067-.007-.06-.015-.067.015-.067.007-.06-.015L16.788,8.8l-.06-.007-.067.022-.06-.03-.067.037-.067.022-.06-.015-.067.007-.06-.022-.052.037-.052.022-.052.037-.015.06-.03.052-.007.06.007.06-.015.067.015.06-.03.067.022.06.03.067-.015.06-.03.06.007.067.007.06-.015.067.022.06-.022.067-.007.06.03.067-.015.06.007.06v.067l-.007.06.007.067-.022.06.007.067-.007.06.022.067.015.06v.067l-.022.06.03.067-.007.06-.022.06.015.067-.007.06.015.067-.037.06.015.067.03.06v.067l-.022.06.022.067-.045.06.03.067-.022.06.007.06.03.067-.037.06.007.067.007.06.015.067v.06l-.015.067.03.06-.007.067v.06l-.045.067.03.06.015.06-.015.067v.06l.015.067-.015.06.015.067-.022.06-.015.06.022.067-.022.06v.067l.037.06-.015.067-.007.06.015.067-.03.06.022.067-.015.06.03.06-.037.067.015.06-.022.067.015.06-.015.067v.06l.007.067.022.06-.03.067.052.06-.03.067-.007.06.03.067-.022.06.022.067-.022.06-.015.067.007.06v.067l.022.06-.007.067.015.06-.015.067.007.06.007.067-.015.06-.03.067.03.06v.194l-.015.06.015.067-.03.06.022.067-.015.06v.067l-.03.052-.03.06-.052.037-.037.052-.06.022-.06.015-.06.03-.067.007-.06.03-.067-.022-.067.022-.067-.03h-.067l-.067.007L15.2,16.4h-.127L15,16.378l-.067.007-.06-.022h-.134l-.067.015-.06-.03-.067-.007-.037-.06-.045-.045-.007-.075-.03-.06.007-.067-.03-.06v-.134l-.022-.067.03-.06-.015-.06.015-.067-.037-.06-.015-.067.03-.06-.015-.067.022-.06-.022-.06.007-.067v-.06l.022-.067-.045-.06v-.067l.022-.06-.015-.067.037-.06-.03-.067.022-.06-.007-.06.007-.067V14.2l-.022-.06v-.067l.015-.06.007-.067.007-.06-.03-.06.03-.067-.015-.06.007-.067-.037-.06.037-.067-.03-.06.007-.067v-.06l.007-.067.015-.06-.03-.067v-.06l.007-.06-.007-.067v-.06l.03-.067-.007-.06-.015-.067.015-.06.022-.067-.037-.06.037-.067-.015-.06-.037-.06.015-.067v-.06l-.007-.067.007-.06.007-.067.015-.06-.037-.06.022-.067.015-.06.007-.067-.022-.06V11.55l-.007-.06.015-.067.007-.06-.007-.067-.022-.06.022-.067.015-.06-.022-.06v-.067l-.007-.06.03-.067-.03-.06-.015-.067.015-.06V10.6l.037-.06-.03-.067.022-.06v-.067l-.022-.06.015-.067-.03-.06.03-.067-.037-.06V9.842l.03-.06-.007-.067-.015-.06.007-.067.022-.06-.022-.067.03-.06-.045-.067.015-.06-.007-.067.007-.06.03-.067-.045-.052.007-.067-.03-.052L14.3,8.864l-.052-.037-.067.007-.06-.015-.06.015H13.99l-.06-.007h-.067l-.06.007-.067-.022-.06-.007L13.61,8.8l-.067.007-.06-.015-.067.037-.06-.037h-.067l-.06.037-.067-.015-.06.015h-.067l-.067.007-.06-.007-.067-.007-.06.015L12.714,8.8h-.06l-.067.007h-.06l-.052.045-.067.007-.03.06-.03.052v.06l-.022.052-.007.067.007.06-.022.067.007.067v.127l-.007.067.03.06.007.067-.052.06.022.06-.015.06.045.06-.007.06-.03.06.015.06.022.06v.119l-.007.067-.03.06.022.067.007.06-.015.067v.127l-.022.06.022.06.015.067v.06l-.022.067.015.06-.007.067.007.06.007.067.007.06-.022.067.022.06-.037.067-.007.06v.127l.015.06.022.067.007.06-.037.067-.007.06-.007.06.022.067.007.06.022.067v.06l-.037.067.007.06-.007.067v.119l.03.067-.045.06.022.067.007.06.007.067-.007.06-.007.067-.015.06.03.067-.03.06.022.067-.015.06.015.067-.007.06v.127l.007.067.015.06-.037.067.03.06-.022.067-.007.06v.067l.022.06.022.067-.007.06v.067l-.037.06.045.067-.03.06.007.067-.022.06.007.067.015.06-.022.067.03.06L12.3,15v.06l.022.067-.022.06.037.067v.06l-.03.067.037.06v.067l-.045.06v.067l.03.06v.067l-.022.06.015.067-.022.06.015.06.03.067-.045.06.045.067-.007.06-.037.067.022.06.022.067v.067l-.045.067.037.06.007.06-.022.075.052.052.007.067v.067l.06.045-.015.075.06.045.007.067.007.06.06.045.03.06v.075l.052.045.015.067.06.037.015.067.067.022.022.075.075.015.03.06.06.022.03.075.075.007.045.037.067.015.052.045.052.03h.067l.06.03.067.015.06-.022.067.037.06-.022.067-.015.06.015.067.007.06-.022.067.03.06-.022h.06l.067.022.06-.015.067.007h.06l.067.015.06-.03.06.007.067-.007.06.03.067.007.06-.03.067.015h.187l.067-.015.06.03h.067l.06-.007h.067l.06-.015.067-.022.06.03.067-.015.06-.007.067-.007.06.037.067-.007.06-.022.067.037.06-.022.067.015.06-.022.067.015.06-.03.067.03.06-.022.067.03.06-.015.067-.015.06-.007.067.045.06-.037.06-.007.06-.007.067-.015.06-.015L17.146,18l.06-.007.06-.022.052-.037.037-.052.067-.015.067-.022.022-.067.045-.045.037-.052.067-.022.052-.037.015-.067.037-.052.037-.052.037-.052.052-.037L17.9,17.3l.03-.06.022-.06.022-.052.045-.052.015-.06.015-.06.03-.06.03-.052.015-.06.045-.06v-.067l.007-.06.007-.067v-.06l-.03-.067.015-.06v-.06l-.022-.067.037-.06-.022-.067v-.06l.022-.067-.015-.06.007-.067.007-.06-.037-.06v-.067l-.007-.06V15.52l.03-.06v-.127l-.015-.06-.015-.067.045-.06-.03-.06-.007-.067v-.06l.022-.067.007-.06-.007-.067v-.06l-.022-.067.015-.06.022-.06-.037-.067.015-.06.015-.067-.037-.06.045-.067-.045-.06.015-.06.007-.067.015-.06-.037-.067.015-.06v-.067l-.022-.06v-.067l.022-.06.022-.06-.022-.067-.007-.06v-.127l.007-.067-.007-.06.015-.067-.007-.06-.015-.067.015-.06-.022-.067.045-.06-.03-.067v-.06l.007-.067.022-.06-.052-.067.045-.06V12.3l-.037-.06.007-.067-.015-.06.007-.067.007-.06.015-.067.015-.06-.007-.067-.03-.06V11.67l.037-.06-.015-.067-.022-.06.022-.067v-.06l-.007-.067.022-.06.007-.067-.045-.06.022-.067-.03-.06.015-.067v-.06l-.007-.067v-.06l.037-.067-.037-.06.022-.06.015-.067-.015-.06-.03-.067.03-.06.007-.067-.037-.06.037-.067-.037-.06V9.9l.03-.067-.015-.06V9.707l.03-.06-.022-.06-.022-.067V9.394l.045-.06-.03-.067-.007-.06.037-.067Z" transform="translate(-12.289 -8.782)"/>
    </g>
    <g id="Group_7" data-name="Group 7" transform="translate(-2.791 13.804)">
      <path id="Path_7" data-name="Path 7" d="M-2.41,13.983l-.045.052-.007.052.037.052-.015.052.022.052-.03.052v.045l.03.052.007.052-.045.045-.037.022-.06-.022-.052.022-.052.015-.03.052-.03.045-.022.037-.052.052.052.045.007.045.007.052.037.045.06-.007.052.007.045.022.045.015.03.022v.052l.007.052-.007.052.015.052-.015.052.007.052-.007.06-.007.052.022.052.007.052-.022.06.015.052.022.052-.037.052.037.052-.007.06-.022.052-.015.052.022.052.015.052-.03.06.015.052-.015.052.037.052-.03.052.007.06.03.052-.03.052-.022.052.052.06-.015.052-.022.052-.015.052v.052l.022.06.007.052-.015.052L-2.41,17l-.037.06v.052l.03.052v.052l-.037.06.007.052.03.052-.03.052v.06l.03.052.015.045.007.052.022.045.022.052.03.037.03.045-.007.067.06.022.037.037.045.03.022.052.045.03.052.007.037.052h.06l.052-.022.052.037h.06l.052-.052h.052l.045-.03.075.015L-1.537,18l.052-.03.015-.06.007-.052-.052-.045.007-.067-.052-.022-.06.007-.045-.03-.045-.037-.052-.007-.06.007-.045-.03-.045-.03-.015-.052-.045-.037-.022-.052L-2,17.407l.015-.052.03-.052.007-.06-.007-.052L-2,17.139l.007-.052.037-.052-.022-.06.007-.052V16.87l-.007-.052.03-.06-.007-.052-.015-.052-.022-.052L-2,16.549l.022-.06.015-.052-.022-.052.015-.052-.022-.06.037-.052-.015-.052-.007-.052.007-.06L-1.992,16l.007-.052.007-.06.022-.052-.037-.052.045-.052v-.06l-.045-.052.015-.052.007-.052.015-.06-.022-.052.015-.052.007-.052-.022-.06.03-.052-.022-.052-.015-.052-.007-.06.015-.052.052-.022.045-.015.06.007.045-.03.03-.052.052-.015.045-.022.015-.052.052-.03.015-.045-.007-.06-.045-.037-.03-.045-.045-.037-.052-.022-.067.03-.052-.022-.052-.007-.045-.03-.022-.06.03-.052V14.3l.007-.052.015-.06-.037-.052.015-.052.007-.052-.03-.067-.03-.015-.007-.06-.037-.045-.052-.015-.052-.007-.06.015-.052-.037-.052.015-.045.03-.045.037v.1Z" transform="translate(2.791 -13.804)"/>
    </g>
    <g id="Group_8" data-name="Group 8" transform="translate(-1.171 12.722)">
      <path id="Path_8" data-name="Path 8" d="M-1.127,12.774l.03.007.052-.015.052-.015.052-.007.052.007.052.015.052-.037.052.022.052-.022.037-.007v.052l-.015.052.007.052-.007.052.015.06-.015.052.015.052v.1l.007.052-.015.052.037.06-.045.052.022.052.022.052-.045.052.052.052-.022.052-.022.06.037.052-.03.052.015.052-.007.052L-.627,14l-.022.052.045.06-.045.052-.007.052.037.052-.015.052.022.06-.03.052v.052l.022.045.03-.037.06.022.037-.045.06.015.045-.022.052-.015.045-.037.052-.015h.052l.052.045.052-.045.052.015.052.03.045.03.067-.022.052.015.045.037.037.037.022.052.045.037.045.03L.4,14.7l.045.037.015.052.03.045.022.045.015.052.037.045.03.045-.015.06.03.052.03.045L.6,15.229l.045.06-.015.052-.015.052L.6,15.445l.022.052.015.052-.03.06.007.052L.6,15.714l.037.052-.022.052.007.06.022.052-.022.052L.6,16.035l.045.052-.007.06L.619,16.2.6,16.251V16.3l.022.052.007.052-.022.06.037.052-.03.052v.052l.03.06v.052L.6,16.788l.007.052.037.052-.037.06L.619,17l.022.052.007.052-.015.052.007.06-.007.052.007.052v.052L.6,17.43l.037.06v.052l.007.052-.022.052v.06l.022.052L.6,17.81l.007.052.03.06L.6,17.975v.052l.037.067H.575L.522,18.1.47,18.057.418,18.1l-.052-.03H.313l-.045-.007-.052.045-.045-.037v-.045l-.03-.052.015-.052.022-.052-.007-.052-.022-.06.007-.052v-.052L.179,17.6l-.022-.052L.142,17.5l-.007-.06.015-.052.03-.052.007-.052-.007-.052-.045-.06.015-.052.03-.052-.022-.052.007-.052V16.9l-.007-.052.03-.052-.007-.052-.015-.06-.022-.052-.007-.052.022-.052.015-.052-.022-.06.015-.052-.022-.052.037-.052-.015-.052-.007-.06.007-.052-.022-.052.007-.052.007-.052.022-.06-.037-.052.045-.052v-.052l-.045-.06.015-.052.007-.052L.179,15.5l-.022-.06.015-.052.007-.052-.03-.06.03-.06-.037-.045-.03-.052-.03-.037-.007-.06L.03,14.99l-.037-.037-.03-.052-.052-.015-.067.015L-.2,14.878l-.06-.007-.052.03-.052-.015-.052.007L-.47,14.9l-.045.045-.052.022L-.6,15l-.03.052.03.067-.015.045v.052l-.015.052.015.052-.03.052.007.06-.007.052-.015.052.045.052-.015.052-.015.06-.015.052.045.052-.03.052-.015.06.015.052.007.052.022.052-.045.052v.06l.007.052V16.3l.037.052-.022.06-.015.052v.052l.03.052-.015.06.022.052v.052l-.045.052.037.052-.007.06.022.052L-.657,17l.022.052.015.06-.03.052.015.052.015.052-.015.06.015.052-.037.052.022.052.015.06-.007.052-.03.052-.007.052v.112l.007.052.037.06-.007.052-.022.052.007.052-.052.022-.06-.03-.052.015-.06-.007-.052.015-.06-.022-.052.03-.06-.015-.067.007.03-.067-.045-.052.052-.052-.045-.052.037-.052-.022-.06-.022-.052.03-.052-.015-.052.037-.052-.03-.052-.022-.06.045-.052-.03-.052.03-.052.007-.052-.015-.052-.022-.06-.007-.052.022-.052.022-.052-.015-.052.007-.052.007-.06-.045-.052.015-.052.03-.052v-.052l-.007-.06-.022-.052-.022-.052.052-.052-.007-.052-.03-.052.037-.06-.015-.052.007-.052-.03-.052L-1.164,16l.037-.052-.045-.06.007-.052.022-.052.015-.052-.015-.052.015-.052-.037-.06-.007-.052.052-.052-.045-.052v-.052l.022-.052-.03-.06.045-.052-.045-.052.03-.052-.007-.052.03-.052-.015-.06.007-.052-.03-.052.03-.052-.007-.052.015-.06-.022-.052-.015-.052.015-.052-.022-.052.007-.052.03-.06-.015-.052-.022-.052.022-.052-.03-.052.03-.06v-.052l.007-.052v-.052l-.03-.06-.007-.052.007-.052.022-.052.022-.052-.045-.052v-.06l.007-.052.03-.052v-.052l-.015-.06.007-.052.007-.052-.03-.052.007-.052.03-.06-.022-.052-.022-.052v-.052l.037-.052Z" transform="translate(1.171 -12.722)"/>
    </g>
    <g id="Group_9" data-name="Group 9" transform="translate(1.104 14.401)">
      <path id="Path_9" data-name="Path 9" d="M2.94,17.169l-.045.015-.06-.037-.06.007-.06-.015-.052.045H2.6l-.06-.022-.052.03-.06-.03v.06l-.007.052v.052l-.015.052-.03.045.015.06-.03.045-.03.045-.037.045h-.06l-.045.03-.06-.015-.045.037-.052-.015-.052.007-.06.007-.06-.007-.052-.022-.037-.045-.022-.052-.06-.022v-.067l-.03-.045-.007-.052L1.649,17.3l.007-.052L1.649,17.2l.007-.052-.015-.052.015-.052-.015-.052.007-.052-.007-.052-.007-.052.015-.052-.037-.052.045-.052-.022-.052-.022-.052.045-.052-.045-.067.067.015.052.015.052-.037.052.03.052-.007h.1l.052.015.052-.037.052.045H2.2l.052-.037.052.015.052-.022.052.03h.052l.052-.022.052-.007.052.045.052-.03.052.03.052-.007h.052l.037-.022-.015-.045v-.052l.052-.052-.045-.052.007-.052.022-.052L2.9,16.1l-.037-.052L2.858,16l.007-.052.007-.052.03-.052L2.9,15.788l-.007-.052.007-.052-.015-.052.015-.052-.007-.052v-.052l.007-.052-.022-.052-.015-.052.03-.052-.015-.052-.022-.052.03-.06-.045-.045L2.828,15v-.06l-.007-.06-.045-.037-.015-.1-.007-.06-.045-.03-.03-.052L2.611,14.6l-.03-.052-.052-.022H2.47l-.037-.045-.045-.037-.067.03-.052-.015-.052-.03-.052-.022L2.112,14.4l-.06.022L2,14.43l-.052-.022-.052.045-.052-.03-.052.007-.045.037-.052.015-.06-.022-.045.022-.037.052H1.485l-.045.03-.022.052-.037.037-.045.03-.03.045-.037.037-.022.052-.022.045-.06.03.015.06L1.164,15v.052l-.037.045v.052l.015.052-.037.052.007.052.03.052-.037.052v.052l.037.052-.007.052.015.052-.045.052.037.052-.022.052v.052l-.007.052.045.052-.037.052.007.052.03.052-.015.052-.022.052.015.052.022.052-.007.052v.052l-.022.052.022.052.015.052.007.052-.015.052-.03.052v.1l.045.052-.007.052-.03.052.022.052-.007.052v.052l.007.052-.03.052.007.052.022.052.03.045.015.052-.007.052.007.052.037.045.007.052.052.03v.067l.045.03.037.037.037.037.052.015.045.03.045.03.007.119.067-.022.037.06.052.015.06-.03.052.022.052.015.052.015.052-.015.052.015.052.007.052-.03.06.03.052-.03.052-.022.052-.022.06.007.045-.022.052-.022h.06l.045-.037.03-.052L2.7,17.9l.045-.03.015-.06.052-.03.03-.045.037-.045.007-.052.037-.045.022-.052.015-.052-.037-.06.015-.052v-.052l.022-.052-.022-.052ZM1.649,15.117l.015-.052.06-.022L1.753,15l.045-.022.022-.067.052-.022.06.007.052-.037.052.03.052.007.052.015.052.015.037.037.03.045.06.015.03.045.037.045.037.045-.007.06.03.045-.007.052.022.052-.015.052.007.052.015.052.007.052v.052l-.015.052-.022.052.037.052-.03.052.015.052-.007.052.007.045-.045-.015-.052.007-.052-.007-.052.015-.052-.015-.052.015L2.1,15.975l-.052.007L2,15.99l-.052-.015-.052.037-.052-.045-.052.022-.052.022L1.7,15.975l-.045-.037.022-.052.015-.052-.037-.052.03-.052-.007-.052v-.1l.015-.052-.037-.052.045-.052v-.052l-.037-.052.015-.052-.037-.082Z" transform="translate(-1.104 -14.401)"/>
    </g>
  </g>
</svg>
